<svg width="29" height="30" viewBox="0 0 29 30" fill="none" xmlns="http://www.w3.org/2000/svg">
<g clip-path="url(#clip0_3512_7)">
<path d="M0 2.14875C0 0.961873 0.953375 0 2.12969 0H26.8703C28.0466 0 29 0.961873 29 2.14875V27.8513C29 29.0381 28.0466 30 26.8703 30H2.12969C0.953375 30 0 29.0381 0 27.8513V2.14875ZM8.95919 25.1137V11.5669H4.60738V25.1137H8.95919ZM6.78419 9.71627C8.30125 9.71627 9.24556 8.6775 9.24556 7.37626C9.21837 6.04687 8.30306 5.03625 6.81319 5.03625C5.32331 5.03625 4.35 6.04875 4.35 7.37626C4.35 8.6775 5.29431 9.71627 6.75519 9.71627H6.78419ZM15.6799 25.1137V17.5481C15.6799 17.1431 15.7089 16.7381 15.8249 16.4494C16.1385 15.6413 16.8544 14.8031 18.0579 14.8031C19.633 14.8031 20.2619 16.0444 20.2619 17.8669V25.1137H24.6138V17.3437C24.6138 13.1813 22.4678 11.2463 19.604 11.2463C17.2949 11.2463 16.2599 12.5587 15.6799 13.4831V13.53H15.6509C15.6605 13.5144 15.6702 13.4987 15.6799 13.4831V11.5669H11.3299C11.3843 12.8381 11.3299 25.1137 11.3299 25.1137H15.6799Z" fill="white"/>
</g>
<defs>
<clipPath id="clip0_3512_7">
<rect width="29" height="30" fill="white"/>
</clipPath>
</defs>
</svg>
