<svg width="34" height="34" viewBox="0 0 34 34" fill="none" xmlns="http://www.w3.org/2000/svg">
<g clip-path="url(#clip0_3512_5)">
<path d="M17 0C12.3866 0 11.8065 0.02125 9.99386 0.102C8.18125 0.187 6.94663 0.47175 5.865 0.8925C4.73045 1.31924 3.70279 1.98863 2.85387 2.85387C1.98917 3.70323 1.31985 4.73076 0.8925 5.865C0.47175 6.9445 0.184875 8.18126 0.102 9.98745C0.02125 11.8044 0 12.3824 0 17.0021C0 21.6176 0.02125 22.1956 0.102 24.0083C0.187 25.8187 0.47175 27.0534 0.8925 28.135C1.32813 29.2527 1.90825 30.2005 2.85387 31.1461C3.79737 32.0917 4.74513 32.674 5.86287 33.1075C6.94663 33.5283 8.17913 33.8151 9.98959 33.898C11.8044 33.9787 12.3824 34 17 34C21.6176 34 22.1935 33.9787 24.0083 33.898C25.8166 33.813 27.0555 33.5283 28.1371 33.1075C29.271 32.6805 30.2979 32.0112 31.1461 31.1461C32.0917 30.2005 32.6719 29.2527 33.1075 28.135C33.5261 27.0534 33.813 25.8187 33.898 24.0083C33.9787 22.1956 34 21.6176 34 17C34 12.3824 33.9787 11.8044 33.898 9.98959C33.813 8.18125 33.5261 6.9445 33.1075 5.865C32.6802 4.73073 32.0109 3.70318 31.1461 2.85387C30.2975 1.98831 29.2697 1.31887 28.135 0.8925C27.0513 0.47175 25.8145 0.184875 24.0061 0.102C22.1914 0.02125 21.6155 0 16.9957 0H17.0021H17ZM15.4764 3.06425H17.0021C21.5411 3.06425 22.0787 3.07913 23.8701 3.162C25.5276 3.23637 26.4286 3.51475 27.0279 3.74637C27.8205 4.0545 28.3879 4.42425 28.9829 5.01925C29.5779 5.61425 29.9455 6.1795 30.2536 6.97425C30.4874 7.57137 30.7636 8.47237 30.838 10.1299C30.9209 11.9213 30.9379 12.4589 30.9379 16.9957C30.9379 21.5326 30.9209 22.0724 30.838 23.8637C30.7636 25.5213 30.4853 26.4201 30.2536 27.0194C29.9811 27.7575 29.5461 28.425 28.9807 28.9723C28.3857 29.5673 27.8205 29.9349 27.0257 30.243C26.4307 30.4767 25.5297 30.753 23.8701 30.8295C22.0787 30.9103 21.5411 30.9294 17.0021 30.9294C12.4631 30.9294 11.9234 30.9103 10.132 30.8295C8.4745 30.753 7.57563 30.4767 6.97637 30.243C6.23793 29.9708 5.56989 29.5366 5.02137 28.9723C4.45559 28.4241 4.01991 27.756 3.74637 27.0173C3.51475 26.4201 3.23637 25.5191 3.162 23.8616C3.08125 22.0703 3.06425 21.5326 3.06425 16.9915C3.06425 12.4525 3.08125 11.917 3.162 10.1256C3.2385 8.46813 3.51476 7.56713 3.7485 6.96787C4.05663 6.17525 4.42637 5.60787 5.02137 5.01287C5.61637 4.41787 6.18163 4.05025 6.97637 3.74213C7.57563 3.50837 8.4745 3.23213 10.132 3.15563C11.7003 3.08337 12.308 3.06213 15.4764 3.06V3.06425ZM26.0759 5.88625C25.8079 5.88625 25.5427 5.93901 25.2952 6.04154C25.0477 6.14405 24.8228 6.29432 24.6334 6.48375C24.444 6.67318 24.2937 6.89808 24.1912 7.14558C24.0886 7.39308 24.0359 7.65835 24.0359 7.92625C24.0359 8.19415 24.0886 8.45942 24.1912 8.70692C24.2937 8.95442 24.444 9.17932 24.6334 9.36875C24.8228 9.55818 25.0477 9.70845 25.2952 9.81094C25.5427 9.91353 25.8079 9.96627 26.0759 9.96627C26.6169 9.96627 27.1358 9.7513 27.5183 9.36875C27.901 8.98617 28.1159 8.46729 28.1159 7.92625C28.1159 7.38521 27.901 6.86633 27.5183 6.48375C27.1358 6.10117 26.6169 5.88625 26.0759 5.88625ZM17.0021 8.2705C15.8442 8.25243 14.6941 8.4649 13.619 8.89555C12.544 9.32619 11.5653 9.96637 10.7401 10.7789C9.91479 11.5914 9.25939 12.56 8.81203 13.6282C8.36468 14.6964 8.13429 15.8429 8.13429 17.0011C8.13429 18.1592 8.36468 19.3057 8.81203 20.374C9.25939 21.4421 9.91479 22.4108 10.7401 23.2233C11.5653 24.0358 12.544 24.6759 13.619 25.1066C14.6941 25.5372 15.8442 25.7497 17.0021 25.7316C19.294 25.6958 21.4799 24.7604 23.088 23.1269C24.6962 21.4935 25.5975 19.2933 25.5975 17.0011C25.5975 14.7089 24.6962 12.5086 23.088 10.8752C21.4799 9.24181 19.294 8.30626 17.0021 8.2705ZM17.0021 11.3326C18.5052 11.3326 19.9467 11.9297 21.0096 12.9926C22.0724 14.0554 22.6695 15.4969 22.6695 17C22.6695 18.5031 22.0724 19.9446 21.0096 21.0074C19.9467 22.0703 18.5052 22.6674 17.0021 22.6674C15.499 22.6674 14.0575 22.0703 12.9947 21.0074C11.9319 19.9446 11.3347 18.5031 11.3347 17C11.3347 15.4969 11.9319 14.0554 12.9947 12.9926C14.0575 11.9297 15.499 11.3326 17.0021 11.3326Z" fill="white"/>
</g>
<defs>
<clipPath id="clip0_3512_5">
<rect width="34" height="34" fill="white"/>
</clipPath>
</defs>
</svg>
