<svg width="34" height="34" viewBox="0 0 34 34" fill="none" xmlns="http://www.w3.org/2000/svg">
<g clip-path="url(#clip0_3512_3)">
<path d="M34 17.1041C34 7.65755 26.3892 0 17.0021 0C7.61079 0.00212474 0 7.65755 0 17.1063C0 25.6413 6.21697 32.7166 14.342 34V22.0484H10.0287V17.1063H14.3463V13.3348C14.3463 9.04925 16.8853 6.68229 20.7672 6.68229C22.6285 6.68229 24.5726 7.01587 24.5726 7.01587V11.2228H22.4287C20.3188 11.2228 19.6602 12.5423 19.6602 13.8958V17.1041H24.3729L23.6207 22.0463H19.658V33.9979C27.7831 32.7145 34 25.6392 34 17.1041Z" fill="white"/>
</g>
<defs>
<clipPath id="clip0_3512_3">
<rect width="34" height="34" fill="white"/>
</clipPath>
</defs>
</svg>
