<svg width="115" height="41" viewBox="0 0 115 41" fill="none" xmlns="http://www.w3.org/2000/svg">
<path d="M0.334567 36.4895C0.559325 36.2431 0.865144 36.1199 1.25202 36.1199C1.6389 36.1199 1.94472 36.2467 2.16948 36.5005C2.39424 36.7524 2.50662 37.0972 2.50662 37.5349C2.50662 37.9707 2.39424 38.3145 2.16948 38.5665C1.94472 38.8147 1.63614 38.9388 1.24373 38.9388C0.873434 38.9425 0.572221 38.8147 0.340094 38.5554C0.107966 38.2962 -0.00533404 37.9532 0.000192796 37.5266C0.000192796 37.0816 0.111651 36.7359 0.334567 36.4895ZM1.2465 36.4702C0.701181 36.4702 0.428523 36.8223 0.428523 37.5266C0.428523 37.8741 0.497609 38.1389 0.63578 38.321C0.775793 38.503 0.981207 38.5941 1.25202 38.5941C1.52284 38.5941 1.72825 38.5039 1.86827 38.3237C2.00828 38.1417 2.07829 37.8769 2.07829 37.5294C2.07829 37.18 2.00828 36.9161 1.86827 36.7377C1.72825 36.5594 1.521 36.4702 1.2465 36.4702Z" fill="#404A63"/>
<path d="M5.24655 36.1199C5.37183 36.1199 5.48052 36.1291 5.57264 36.1474L5.51737 36.5309C5.40867 36.5069 5.30919 36.495 5.21892 36.495C4.99784 36.495 4.80901 36.5842 4.65242 36.7625C4.49582 36.9409 4.41752 37.1634 4.41752 37.4301V38.8892H4.00301V36.1695H4.34568L4.39265 36.6715H4.412C4.51332 36.4932 4.63491 36.3571 4.77677 36.2633C4.92047 36.1677 5.07706 36.1199 5.24655 36.1199Z" fill="#404A63"/>
<path d="M7.69467 36.4205C7.49754 36.4205 7.3474 36.4729 7.24423 36.5777C7.14106 36.6826 7.08948 36.8333 7.08948 37.0301C7.08948 37.225 7.1429 37.3721 7.24975 37.4714C7.35661 37.5689 7.50675 37.6176 7.70019 37.6176C8.10365 37.6176 8.30538 37.4227 8.30538 37.0329C8.30538 36.6246 8.10181 36.4205 7.69467 36.4205ZM9.04045 36.1695V36.4288L8.53475 36.4895C8.65449 36.6384 8.71437 36.8196 8.71437 37.0329C8.71437 37.2995 8.62317 37.5128 8.44079 37.6728C8.25656 37.8309 8.00601 37.91 7.68914 37.91C7.61361 37.91 7.53715 37.9026 7.45977 37.8879C7.28476 37.9817 7.19725 38.0985 7.19725 38.2382C7.19725 38.3155 7.22765 38.3715 7.28844 38.4065C7.35108 38.4396 7.45609 38.4561 7.60347 38.4561H8.08707C8.38184 38.4561 8.60844 38.5187 8.76687 38.6437C8.92531 38.7669 9.00453 38.9471 9.00453 39.1843C9.00453 39.4859 8.88294 39.7158 8.63976 39.8739C8.39842 40.032 8.04562 40.1111 7.58137 40.1111C7.2258 40.1111 6.9513 40.0449 6.75787 39.9125C6.56443 39.7801 6.46771 39.5926 6.46771 39.3498C6.46771 39.1825 6.52113 39.0391 6.62798 38.9195C6.73484 38.8 6.88406 38.7191 7.07566 38.6768C7.00197 38.6437 6.94209 38.5941 6.89604 38.5279C6.85182 38.4617 6.82971 38.3826 6.82971 38.2906C6.82971 38.1969 6.85551 38.1132 6.90709 38.0396C6.95867 37.9661 7.0425 37.8934 7.15856 37.8217C7.01855 37.7647 6.90341 37.6663 6.81313 37.5266C6.7247 37.3868 6.68049 37.2278 6.68049 37.0494C6.68049 36.7515 6.76984 36.5226 6.94854 36.3626C7.12909 36.2008 7.38332 36.1199 7.71125 36.1199C7.8531 36.1199 7.98206 36.1364 8.09812 36.1695H9.04045ZM7.45977 38.8285C7.27186 38.8285 7.1254 38.8736 7.02039 38.9637C6.91722 39.0538 6.86564 39.177 6.86564 39.3333C6.86564 39.6422 7.10606 39.7967 7.58689 39.7967C7.92587 39.7967 8.18011 39.7461 8.3496 39.645C8.52093 39.5438 8.60659 39.4022 8.60659 39.2202C8.60659 39.0749 8.56054 38.9729 8.46842 38.914C8.37815 38.857 8.20682 38.8285 7.95443 38.8285H7.45977Z" fill="#404A63"/>
<path d="M10.6049 38.1417C10.6049 38.2888 10.65 38.4019 10.7403 38.481C10.8306 38.56 10.9568 38.5996 11.1189 38.5996C11.3786 38.5996 11.5813 38.5297 11.7268 38.3899C11.8724 38.2483 11.9452 38.0507 11.9452 37.7969V37.5514L11.5334 37.568C11.2055 37.5808 10.9687 37.6323 10.8232 37.7224C10.6777 37.8125 10.6049 37.9523 10.6049 38.1417ZM12.3597 38.8892H12.0529L11.97 38.503H11.9507C11.8143 38.6722 11.6789 38.7871 11.5445 38.8478C11.41 38.9085 11.2414 38.9388 11.0387 38.9388C10.7661 38.9388 10.5533 38.869 10.4004 38.7292C10.2493 38.5895 10.1738 38.3918 10.1738 38.1362C10.1738 37.5882 10.6132 37.3004 11.4919 37.2728L11.9562 37.259V37.0908C11.9562 36.8738 11.9101 36.7157 11.818 36.6164C11.7259 36.5152 11.5721 36.4647 11.3565 36.4647C11.1428 36.4647 10.8923 36.5336 10.6049 36.6715L10.4778 36.3571C10.7652 36.2008 11.0728 36.1226 11.4008 36.1226C11.7287 36.1226 11.97 36.1953 12.1248 36.3405C12.2814 36.4858 12.3597 36.7166 12.3597 37.0329V38.8892Z" fill="#404A63"/>
<path d="M16.266 38.8892H15.8515V37.1294C15.8515 36.9051 15.8008 36.7396 15.6995 36.6329C15.5981 36.5244 15.4406 36.4702 15.2269 36.4702C14.9414 36.4702 14.7323 36.5474 14.5996 36.7019C14.467 36.8545 14.4007 37.1083 14.4007 37.4632V38.8892H13.9862V36.1695H14.3233L14.3896 36.5419H14.409C14.4937 36.4095 14.6125 36.3065 14.7654 36.233C14.9183 36.1576 15.0888 36.1199 15.2767 36.1199C15.6083 36.1199 15.8561 36.1999 16.02 36.3598C16.184 36.5198 16.266 36.7717 16.266 37.1156V38.8892Z" fill="#404A63"/>
<path d="M18.2745 35.6372C18.2284 35.6831 18.1695 35.7061 18.0976 35.7061C18.0258 35.7061 17.9677 35.6831 17.9235 35.6372C17.8793 35.5894 17.8572 35.5204 17.8572 35.4303C17.8572 35.3402 17.8793 35.2722 17.9235 35.2262C17.9677 35.1802 18.0258 35.1572 18.0976 35.1572C18.1695 35.1572 18.2284 35.1811 18.2745 35.2289C18.3205 35.2749 18.3436 35.3429 18.3436 35.4331C18.3436 35.5213 18.3205 35.5894 18.2745 35.6372ZM18.3049 36.1695V38.8892H17.8904V36.1695H18.3049Z" fill="#404A63"/>
<path d="M21.6967 38.5692V38.8892H19.7209V38.6078L21.2076 36.4895H19.812V36.1695H21.6608V36.4895L20.1934 38.5692H21.6967Z" fill="#404A63"/>
<path d="M23.3392 38.1417C23.3392 38.2888 23.3844 38.4019 23.4747 38.481C23.5649 38.56 23.6911 38.5996 23.8532 38.5996C24.113 38.5996 24.3157 38.5297 24.4612 38.3899C24.6067 38.2483 24.6795 38.0507 24.6795 37.7969V37.5514L24.2678 37.568C23.9398 37.5808 23.7031 37.6323 23.5576 37.7224C23.412 37.8125 23.3392 37.9523 23.3392 38.1417ZM25.094 38.8892H24.7873L24.7044 38.503H24.685C24.5487 38.6722 24.4133 38.7871 24.2788 38.8478C24.1443 38.9085 23.9758 38.9388 23.7731 38.9388C23.5004 38.9388 23.2877 38.869 23.1348 38.7292C22.9837 38.5895 22.9081 38.3918 22.9081 38.1362C22.9081 37.5882 23.3475 37.3004 24.2263 37.2728L24.6906 37.259V37.0908C24.6906 36.8738 24.6445 36.7157 24.5524 36.6164C24.4603 36.5152 24.3064 36.4647 24.0909 36.4647C23.8772 36.4647 23.6266 36.5336 23.3392 36.6715L23.2121 36.3571C23.4995 36.2008 23.8072 36.1226 24.1351 36.1226C24.463 36.1226 24.7044 36.1953 24.8591 36.3405C25.0157 36.4858 25.094 36.7166 25.094 37.0329V38.8892Z" fill="#404A63"/>
<path d="M29.4095 38.0893C29.4095 38.2529 29.4473 38.3789 29.5228 38.4672C29.6002 38.5554 29.7052 38.5996 29.8379 38.5996C29.9723 38.5996 30.0995 38.583 30.2192 38.5499V38.8644C30.1768 38.8846 30.1096 38.9021 30.0175 38.9168C29.9272 38.9315 29.8498 38.9388 29.7854 38.9388C29.2585 38.9388 28.995 38.6621 28.995 38.1086V36.4895H28.6054V36.2909L28.995 36.1199L29.1691 35.5379H29.4095V36.1695H30.1999V36.4895H29.4095V38.0893Z" fill="#404A63"/>
<path d="M31.512 36.1695H31.9293V37.9348C31.9293 38.1573 31.98 38.3228 32.0813 38.4313C32.1845 38.5398 32.3429 38.5941 32.5566 38.5941C32.8422 38.5941 33.0504 38.5159 33.1812 38.3596C33.312 38.2033 33.3774 37.9495 33.3774 37.5983V36.1695H33.7919V38.8892H33.452L33.3912 38.5251H33.3691C33.2843 38.6575 33.1673 38.7595 33.0181 38.8313C32.8689 38.903 32.6976 38.9388 32.5041 38.9388C32.1688 38.9388 31.9192 38.8598 31.7552 38.7016C31.5931 38.5416 31.512 38.2906 31.512 37.9486V36.1695Z" fill="#404A63"/>
<path d="M37.2042 38.1472C37.2042 38.401 37.1093 38.5968 36.9196 38.7347C36.7316 38.8708 36.4618 38.9388 36.1099 38.9388C35.758 38.9388 35.4807 38.8818 35.2781 38.7678V38.3844C35.5618 38.5279 35.8474 38.5996 36.1347 38.5996C36.5824 38.5996 36.8063 38.4607 36.8063 38.1831C36.8063 38.0764 36.7593 37.9854 36.6653 37.91C36.5714 37.8328 36.3963 37.7463 36.1403 37.6507C35.8842 37.5533 35.7 37.4687 35.5876 37.397C35.3757 37.2535 35.2698 37.0687 35.2698 36.8425C35.2698 36.6164 35.3601 36.4398 35.5406 36.3129C35.7212 36.1842 35.9643 36.1199 36.2702 36.1199C36.5778 36.1199 36.8698 36.1787 37.1462 36.2964L36.9997 36.6329C36.7289 36.5207 36.4885 36.4647 36.2784 36.4647C36.0703 36.4647 35.9155 36.495 35.8142 36.5557C35.7147 36.6145 35.665 36.6991 35.665 36.8094C35.665 36.8793 35.6825 36.9409 35.7175 36.9942C35.7543 37.0457 35.8142 37.0954 35.8971 37.1432C35.98 37.1892 36.1403 37.2554 36.3779 37.3418C36.7022 37.4613 36.9205 37.5808 37.0329 37.7004C37.1471 37.8181 37.2042 37.967 37.2042 38.1472Z" fill="#404A63"/>
<path d="M42.1227 36.1695V36.4895H41.429V38.8892H41.0145V36.4895H40.5282V36.3019L41.0145 36.153V36.0013C41.0145 35.3338 41.3075 35 41.8933 35C42.0388 35 42.2083 35.0285 42.4018 35.0855L42.294 35.4165C42.1392 35.365 42.0029 35.3393 41.885 35.3393C41.7284 35.3393 41.6133 35.3917 41.5396 35.4965C41.4659 35.6013 41.429 35.7668 41.429 35.993V36.1695H42.1227Z" fill="#404A63"/>
<path d="M43.7827 35.6372C43.7367 35.6831 43.6777 35.7061 43.6059 35.7061C43.534 35.7061 43.476 35.6831 43.4318 35.6372C43.3876 35.5894 43.3655 35.5204 43.3655 35.4303C43.3655 35.3402 43.3876 35.2722 43.4318 35.2262C43.476 35.1802 43.534 35.1572 43.6059 35.1572C43.6777 35.1572 43.7367 35.1811 43.7827 35.2289C43.8288 35.2749 43.8518 35.3429 43.8518 35.4331C43.8518 35.5213 43.8288 35.5894 43.7827 35.6372ZM43.8131 36.1695V38.8892H43.3986V36.1695H43.8131Z" fill="#404A63"/>
<path d="M47.7411 38.8892H47.3265V37.1294C47.3265 36.9051 47.2759 36.7396 47.1746 36.6329C47.0732 36.5244 46.9157 36.4702 46.702 36.4702C46.4165 36.4702 46.2074 36.5474 46.0747 36.7019C45.9421 36.8545 45.8757 37.1083 45.8757 37.4632V38.8892H45.4612V36.1695H45.7984L45.8647 36.5419H45.884C45.9688 36.4095 46.0876 36.3065 46.2405 36.233C46.3934 36.1576 46.5638 36.1199 46.7518 36.1199C47.0834 36.1199 47.3312 36.1999 47.4951 36.3598C47.6591 36.5198 47.7411 36.7717 47.7411 37.1156V38.8892Z" fill="#404A63"/>
<path d="M49.5948 38.1417C49.5948 38.2888 49.6399 38.4019 49.7302 38.481C49.8205 38.56 49.9467 38.5996 50.1088 38.5996C50.3686 38.5996 50.5712 38.5297 50.7168 38.3899C50.8623 38.2483 50.9351 38.0507 50.9351 37.7969V37.5514L50.5233 37.568C50.1954 37.5808 49.9587 37.6323 49.8131 37.7224C49.6676 37.8125 49.5948 37.9523 49.5948 38.1417ZM51.3496 38.8892H51.0428L50.9599 38.503H50.9406C50.8043 38.6722 50.6689 38.7871 50.5344 38.8478C50.3999 38.9085 50.2313 38.9388 50.0287 38.9388C49.756 38.9388 49.5432 38.869 49.3903 38.7292C49.2392 38.5895 49.1637 38.3918 49.1637 38.1362C49.1637 37.5882 49.6031 37.3004 50.4819 37.2728L50.9461 37.259V37.0908C50.9461 36.8738 50.9001 36.7157 50.8079 36.6164C50.7158 36.5152 50.562 36.4647 50.3465 36.4647C50.1328 36.4647 49.8822 36.5336 49.5948 36.6715L49.4677 36.3571C49.7551 36.2008 50.0627 36.1226 50.3907 36.1226C50.7186 36.1226 50.9599 36.1953 51.1147 36.3405C51.2713 36.4858 51.3496 36.7166 51.3496 37.0329V38.8892Z" fill="#404A63"/>
<path d="M55.2559 38.8892H54.8414V37.1294C54.8414 36.9051 54.7907 36.7396 54.6894 36.6329C54.5881 36.5244 54.4305 36.4702 54.2168 36.4702C53.9313 36.4702 53.7222 36.5474 53.5895 36.7019C53.4569 36.8545 53.3906 37.1083 53.3906 37.4632V38.8892H52.9761V36.1695H53.3132L53.3795 36.5419H53.3989C53.4836 36.4095 53.6024 36.3065 53.7554 36.233C53.9083 36.1576 54.0787 36.1199 54.2666 36.1199C54.5982 36.1199 54.846 36.1999 55.0099 36.3598C55.1739 36.5198 55.2559 36.7717 55.2559 37.1156V38.8892Z" fill="#404A63"/>
<path d="M58.624 38.5692V38.8892H56.6481V38.6078L58.1349 36.4895H56.7393V36.1695H58.5881V36.4895L57.1207 38.5692H58.624Z" fill="#404A63"/>
<path d="M60.2665 38.1417C60.2665 38.2888 60.3117 38.4019 60.4019 38.481C60.4922 38.56 60.6184 38.5996 60.7805 38.5996C61.0403 38.5996 61.243 38.5297 61.3885 38.3899C61.534 38.2483 61.6068 38.0507 61.6068 37.7969V37.5514L61.1951 37.568C60.8671 37.5808 60.6304 37.6323 60.4849 37.7224C60.3393 37.8125 60.2665 37.9523 60.2665 38.1417ZM62.0213 38.8892H61.7146L61.6317 38.503H61.6123C61.476 38.6722 61.3406 38.7871 61.2061 38.8478C61.0716 38.9085 60.903 38.9388 60.7004 38.9388C60.4277 38.9388 60.215 38.869 60.062 38.7292C59.911 38.5895 59.8354 38.3918 59.8354 38.1362C59.8354 37.5882 60.2748 37.3004 61.1536 37.2728L61.6179 37.259V37.0908C61.6179 36.8738 61.5718 36.7157 61.4797 36.6164C61.3876 36.5152 61.2337 36.4647 61.0182 36.4647C60.8045 36.4647 60.5539 36.5336 60.2665 36.6715L60.1394 36.3571C60.4268 36.2008 60.7345 36.1226 61.0624 36.1226C61.3903 36.1226 61.6317 36.1953 61.7864 36.3405C61.943 36.4858 62.0213 36.7166 62.0213 37.0329V38.8892Z" fill="#404A63"/>
<path d="M65.4081 38.1472C65.4081 38.401 65.3132 38.5968 65.1235 38.7347C64.9356 38.8708 64.6657 38.9388 64.3138 38.9388C63.9619 38.9388 63.6846 38.8818 63.482 38.7678V38.3844C63.7657 38.5279 64.0513 38.5996 64.3387 38.5996C64.7863 38.5996 65.0102 38.4607 65.0102 38.1831C65.0102 38.0764 64.9632 37.9854 64.8692 37.91C64.7753 37.8328 64.6003 37.7463 64.3442 37.6507C64.0881 37.5533 63.9039 37.4687 63.7915 37.397C63.5796 37.2535 63.4737 37.0687 63.4737 36.8425C63.4737 36.6164 63.564 36.4398 63.7445 36.3129C63.9251 36.1842 64.1682 36.1199 64.4741 36.1199C64.7817 36.1199 65.0737 36.1787 65.3501 36.2964L65.2036 36.6329C64.9328 36.5207 64.6924 36.4647 64.4824 36.4647C64.2742 36.4647 64.1194 36.495 64.0181 36.5557C63.9186 36.6145 63.8689 36.6991 63.8689 36.8094C63.8689 36.8793 63.8864 36.9409 63.9214 36.9942C63.9582 37.0457 64.0181 37.0954 64.101 37.1432C64.1839 37.1892 64.3442 37.2554 64.5818 37.3418C64.9061 37.4613 65.1244 37.5808 65.2368 37.7004C65.351 37.8181 65.4081 37.967 65.4081 38.1472Z" fill="#404A63"/>
<path d="M67.3225 38.3568C67.2341 38.7025 67.0876 39.0988 66.8831 39.5457H66.5736C66.6234 39.3489 66.674 39.1282 66.7256 38.8837C66.7772 38.6373 66.8131 38.4423 66.8334 38.2989H67.2866L67.3225 38.3568Z" fill="#404A63"/>
<path d="M71.3045 36.4895C71.5293 36.2431 71.8351 36.1199 72.222 36.1199C72.6088 36.1199 72.9146 36.2467 73.1394 36.5005C73.3642 36.7524 73.4765 37.0972 73.4765 37.5349C73.4765 37.9707 73.3642 38.3145 73.1394 38.5665C72.9146 38.8147 72.6061 38.9388 72.2137 38.9388C71.8434 38.9425 71.5422 38.8147 71.31 38.5554C71.0779 38.2962 70.9646 37.9532 70.9701 37.5266C70.9701 37.0816 71.0816 36.7359 71.3045 36.4895ZM72.2164 36.4702C71.6711 36.4702 71.3985 36.8223 71.3985 37.5266C71.3985 37.8741 71.4675 38.1389 71.6057 38.321C71.7457 38.503 71.9511 38.5941 72.222 38.5941C72.4928 38.5941 72.6982 38.5039 72.8382 38.3237C72.9782 38.1417 73.0482 37.8769 73.0482 37.5294C73.0482 37.18 72.9782 36.9161 72.8382 36.7377C72.6982 36.5594 72.4909 36.4702 72.2164 36.4702Z" fill="#404A63"/>
<path d="M76.2165 36.1199C76.3418 36.1199 76.4504 36.1291 76.5426 36.1474L76.4873 36.5309C76.3786 36.5069 76.2791 36.495 76.1888 36.495C75.9678 36.495 75.7789 36.5842 75.6223 36.7625C75.4658 36.9409 75.3875 37.1634 75.3875 37.4301V38.8892H74.9729V36.1695H75.3156L75.3626 36.6715H75.3819C75.4833 36.4932 75.6048 36.3571 75.7467 36.2633C75.8904 36.1677 76.047 36.1199 76.2165 36.1199Z" fill="#404A63"/>
<path d="M78.1939 36.746C78.065 36.9317 78.0005 37.1974 78.0005 37.5431C78.0005 37.8888 78.0641 38.1509 78.1912 38.3293C78.3201 38.5058 78.508 38.5941 78.7549 38.5941C79.0368 38.5941 79.2413 38.5177 79.3684 38.3651C79.4955 38.2106 79.5591 37.9633 79.5591 37.6231V37.5376C79.5591 37.1496 79.4946 36.8738 79.3656 36.7101C79.2367 36.5465 79.0313 36.4647 78.7494 36.4647C78.508 36.4647 78.3229 36.5584 78.1939 36.746ZM79.5591 38.5251C79.3675 38.8009 79.0874 38.9388 78.719 38.9388C78.3524 38.9388 78.0696 38.8175 77.8706 38.5747C77.6717 38.3283 77.5722 37.9817 77.5722 37.5349C77.5722 37.088 77.6717 36.7405 77.8706 36.4922C78.0696 36.244 78.3505 36.1199 78.7135 36.1199C79.0782 36.1199 79.3583 36.2532 79.5535 36.5198H79.5867L79.5674 36.324L79.5591 36.1337V35.0276H79.9708V38.8892H79.6364L79.5812 38.5251H79.5591Z" fill="#404A63"/>
<path d="M82.77 38.9388C82.3666 38.9388 82.0479 38.8166 81.8139 38.572C81.5818 38.3274 81.4657 37.9863 81.4657 37.5487C81.4657 37.111 81.5735 36.7635 81.789 36.506C82.0082 36.2486 82.2938 36.1199 82.6457 36.1199C82.9994 36.1199 83.2757 36.232 83.4747 36.4564C83.6737 36.6807 83.7732 36.9759 83.7732 37.3418V37.6038H81.894C81.9032 37.9219 81.9843 38.1647 82.1372 38.332C82.2901 38.4975 82.5103 38.5803 82.7977 38.5803C83.0869 38.5803 83.3725 38.5187 83.6543 38.3955V38.7623C83.5125 38.8248 83.3752 38.8699 83.2426 38.8975C83.1099 38.925 82.9524 38.9388 82.77 38.9388ZM83.331 37.2673C83.331 37.008 83.273 36.8094 83.1569 36.6715C83.0408 36.5336 82.8741 36.4647 82.6567 36.4647C82.4412 36.4647 82.2671 36.5354 82.1344 36.677C82.0036 36.8186 81.9272 37.0154 81.9051 37.2673H83.331Z" fill="#404A63"/>
<path d="M87.5295 38.8892H87.115V37.1294C87.115 36.9051 87.0643 36.7396 86.963 36.6329C86.8617 36.5244 86.7041 36.4702 86.4904 36.4702C86.2049 36.4702 85.9958 36.5474 85.8631 36.7019C85.7305 36.8545 85.6642 37.1083 85.6642 37.4632V38.8892H85.2497V36.1695H85.5868L85.6531 36.5419H85.6725C85.7572 36.4095 85.876 36.3065 86.029 36.233C86.1819 36.1576 86.3523 36.1199 86.5402 36.1199C86.8718 36.1199 87.1196 36.1999 87.2835 36.3598C87.4475 36.5198 87.5295 36.7717 87.5295 37.1156V38.8892Z" fill="#404A63"/>
<path d="M89.3832 38.1417C89.3832 38.2888 89.4284 38.4019 89.5186 38.481C89.6089 38.56 89.7351 38.5996 89.8972 38.5996C90.157 38.5996 90.3596 38.5297 90.5052 38.3899C90.6507 38.2483 90.7235 38.0507 90.7235 37.7969V37.5514L90.3118 37.568C89.9838 37.5808 89.7471 37.6323 89.6015 37.7224C89.456 37.8125 89.3832 37.9523 89.3832 38.1417ZM91.138 38.8892H90.8313L90.7484 38.503H90.729C90.5927 38.6722 90.4573 38.7871 90.3228 38.8478C90.1883 38.9085 90.0197 38.9388 89.8171 38.9388C89.5444 38.9388 89.3316 38.869 89.1787 38.7292C89.0277 38.5895 88.9521 38.3918 88.9521 38.1362C88.9521 37.5882 89.3915 37.3004 90.2703 37.2728L90.7346 37.259V37.0908C90.7346 36.8738 90.6885 36.7157 90.5964 36.6164C90.5043 36.5152 90.3504 36.4647 90.1349 36.4647C89.9212 36.4647 89.6706 36.5336 89.3832 36.6715L89.2561 36.3571C89.5435 36.2008 89.8512 36.1226 90.1791 36.1226C90.507 36.1226 90.7484 36.1953 90.9031 36.3405C91.0597 36.4858 91.138 36.7166 91.138 37.0329V38.8892Z" fill="#404A63"/>
<path d="M95.4535 38.0893C95.4535 38.2529 95.4913 38.3789 95.5668 38.4672C95.6442 38.5554 95.7492 38.5996 95.8819 38.5996C96.0163 38.5996 96.1435 38.583 96.2632 38.5499V38.8644C96.2208 38.8846 96.1536 38.9021 96.0615 38.9168C95.9712 38.9315 95.8938 38.9388 95.8293 38.9388C95.3025 38.9388 95.039 38.6621 95.039 38.1086V36.4895H94.6494V36.2909L95.039 36.1199L95.2131 35.5379H95.4535V36.1695H96.2439V36.4895H95.4535V38.0893Z" fill="#404A63"/>
<path d="M97.556 36.1695H97.9733V37.9348C97.9733 38.1573 98.024 38.3228 98.1253 38.4313C98.2285 38.5398 98.3869 38.5941 98.6006 38.5941C98.8862 38.5941 99.0943 38.5159 99.2251 38.3596C99.3559 38.2033 99.4213 37.9495 99.4213 37.5983V36.1695H99.8359V38.8892H99.496L99.4352 38.5251H99.4131C99.3283 38.6575 99.2113 38.7595 99.0621 38.8313C98.9129 38.903 98.7415 38.9388 98.5481 38.9388C98.2128 38.9388 97.9632 38.8598 97.7992 38.7016C97.6371 38.5416 97.556 38.2906 97.556 37.9486V36.1695Z" fill="#404A63"/>
<path d="M104.812 38.8892H104.329L103.295 36.1695H103.738L104.326 37.7831C104.459 38.1638 104.536 38.4083 104.558 38.5168H104.578C104.598 38.4267 104.649 38.2621 104.732 38.0231C104.817 37.784 105.041 37.1662 105.404 36.1695H105.846L104.812 38.8892Z" fill="#404A63"/>
<path d="M107.444 35.6372C107.398 35.6831 107.339 35.7061 107.267 35.7061C107.195 35.7061 107.137 35.6831 107.093 35.6372C107.049 35.5894 107.027 35.5204 107.027 35.4303C107.027 35.3402 107.049 35.2722 107.093 35.2262C107.137 35.1802 107.195 35.1572 107.267 35.1572C107.339 35.1572 107.398 35.1811 107.444 35.2289C107.49 35.2749 107.513 35.3429 107.513 35.4331C107.513 35.5213 107.49 35.5894 107.444 35.6372ZM107.474 36.1695V38.8892H107.06V36.1695H107.474Z" fill="#404A63"/>
<path d="M109.592 36.746C109.463 36.9317 109.399 37.1974 109.399 37.5431C109.399 37.8888 109.462 38.1509 109.589 38.3293C109.718 38.5058 109.906 38.5941 110.153 38.5941C110.435 38.5941 110.639 38.5177 110.767 38.3651C110.894 38.2106 110.957 37.9633 110.957 37.6231V37.5376C110.957 37.1496 110.893 36.8738 110.764 36.7101C110.635 36.5465 110.429 36.4647 110.148 36.4647C109.906 36.4647 109.721 36.5584 109.592 36.746ZM110.957 38.5251C110.766 38.8009 110.486 38.9388 110.117 38.9388C109.751 38.9388 109.468 38.8175 109.269 38.5747C109.07 38.3283 108.97 37.9817 108.97 37.5349C108.97 37.088 109.07 36.7405 109.269 36.4922C109.468 36.244 109.749 36.1199 110.112 36.1199C110.476 36.1199 110.756 36.2532 110.952 36.5198H110.985L110.966 36.324L110.957 36.1337V35.0276H111.369V38.8892H111.035L110.979 38.5251H110.957Z" fill="#404A63"/>
<path d="M113.245 38.1417C113.245 38.2888 113.29 38.4019 113.381 38.481C113.471 38.56 113.597 38.5996 113.759 38.5996C114.019 38.5996 114.222 38.5297 114.367 38.3899C114.513 38.2483 114.585 38.0507 114.585 37.7969V37.5514L114.174 37.568C113.846 37.5808 113.609 37.6323 113.464 37.7224C113.318 37.8125 113.245 37.9523 113.245 38.1417ZM115 38.8892H114.693L114.61 38.503H114.591C114.455 38.6722 114.319 38.7871 114.185 38.8478C114.05 38.9085 113.882 38.9388 113.679 38.9388C113.406 38.9388 113.194 38.869 113.041 38.7292C112.89 38.5895 112.814 38.3918 112.814 38.1362C112.814 37.5882 113.254 37.3004 114.132 37.2728L114.597 37.259V37.0908C114.597 36.8738 114.55 36.7157 114.458 36.6164C114.366 36.5152 114.212 36.4647 113.997 36.4647C113.783 36.4647 113.533 36.5336 113.245 36.6715L113.118 36.3571C113.406 36.2008 113.713 36.1226 114.041 36.1226C114.369 36.1226 114.61 36.1953 114.765 36.3405C114.922 36.4858 115 36.7166 115 37.0329V38.8892Z" fill="#404A63"/>
<path d="M1.34021 29.9479C0.833909 29.9479 0.47652 29.8618 0.268042 29.6894C0.0893475 29.4883 0 29.158 0 28.6983C0 27.9227 0.0893475 27.3481 0.268042 26.9747C0.446737 26.6012 0.863692 26.0842 1.51891 25.4234L13.4021 13.4873H2.09966C1.50402 13.4873 1.07217 13.3724 0.804127 13.1426C0.536085 12.9128 0.402063 12.525 0.402063 11.9792V10.7296C0.402063 10.1837 0.536085 9.81029 0.804127 9.6092C1.07217 9.37938 1.50402 9.26447 2.09966 9.26447H19.299C19.7756 9.26447 20.1032 9.36502 20.2819 9.56611C20.4606 9.73847 20.5499 10.0545 20.5499 10.5141C20.5499 11.2897 20.4457 11.893 20.2372 12.3239C20.0585 12.7261 19.6713 13.2288 19.0757 13.8321L7.54986 25.7682H19.299C19.8947 25.7682 20.3265 25.8974 20.5946 26.156C20.8626 26.3858 20.9967 26.7736 20.9967 27.3194V28.4829C20.9967 28.9999 20.8626 29.3734 20.5946 29.6032C20.3265 29.833 19.8947 29.9479 19.299 29.9479H1.34021Z" fill="#404A63"/>
<path d="M36.2887 29.9479C32.3276 29.9479 29.2302 29.0143 26.9966 27.1471C24.7927 25.2511 23.6907 22.5507 23.6907 19.046C23.6907 16.8628 24.197 14.9381 25.2096 13.2719C26.2222 11.6057 27.6667 10.313 29.543 9.39374C31.449 8.44575 33.6678 7.97175 36.1993 7.97175C38.0756 7.97175 39.669 8.14411 40.9794 8.48884C42.2899 8.83356 43.5109 9.39374 44.6427 10.1694C44.9107 10.3417 45.0447 10.5285 45.0447 10.7295C45.0447 10.9019 44.9703 11.103 44.8214 11.3328L43.6152 13.3581C43.4365 13.6453 43.2727 13.789 43.1238 13.789C42.9749 13.789 42.7664 13.7028 42.4983 13.5304C41.5751 12.9846 40.6518 12.5824 39.7286 12.3239C38.8351 12.0366 37.7629 11.893 36.5121 11.893C34.2784 11.893 32.5212 12.5394 31.2406 13.8321C29.9599 15.0961 29.3196 16.834 29.3196 19.046C29.3196 21.3729 29.9599 23.1253 31.2406 24.3031C32.5212 25.4522 34.3975 26.0267 36.8694 26.0267C38.1203 26.0267 39.2074 25.8831 40.1306 25.5958C41.0539 25.3085 41.9474 24.892 42.8111 24.3462C43.0493 24.2025 43.2429 24.1307 43.3918 24.1307C43.5705 24.1307 43.7492 24.2744 43.9279 24.5616L45.2234 26.6731C45.3426 26.8167 45.4021 26.9747 45.4021 27.1471C45.4021 27.3481 45.2532 27.5492 44.9554 27.7503C43.7641 28.4972 42.4834 29.043 41.1134 29.3878C39.7435 29.7612 38.1352 29.9479 36.2887 29.9479Z" fill="#404A63"/>
<path d="M49.7938 29.9479C49.1981 29.9479 48.7663 29.8187 48.4982 29.5601C48.2302 29.3016 48.0962 28.9138 48.0962 28.3967V10.4279C48.0962 9.99701 48.1706 9.69538 48.3195 9.52302C48.4685 9.35065 48.7812 9.26447 49.2577 9.26447H51.8041C52.1317 9.26447 52.37 9.33629 52.5189 9.47993C52.6678 9.59483 52.7571 9.81029 52.7869 10.1263L52.9209 11.6775C54.6781 9.63792 56.9863 8.61811 59.8454 8.61811C61.1558 8.61811 62.1535 8.83357 62.8385 9.26447C63.0172 9.37938 63.1214 9.50865 63.1512 9.65229C63.2108 9.7672 63.2108 9.91083 63.1512 10.0832L62.3471 12.6686C62.2578 12.9559 62.0939 13.0995 61.8557 13.0995L61.4983 13.0134C60.7835 12.6974 59.9645 12.5394 59.0412 12.5394C57.5223 12.5394 56.2715 12.9559 55.2887 13.789C54.3058 14.5933 53.8144 15.6993 53.8144 17.107V28.3967C53.8144 28.9138 53.6804 29.3016 53.4123 29.5601C53.1741 29.8187 52.7422 29.9479 52.1168 29.9479H49.7938Z" fill="#404A63"/>
<path d="M78.3539 29.9479C76.0309 29.9479 73.9312 29.5745 72.0549 28.8276C70.1786 28.052 68.6746 26.8742 67.5429 25.2942C66.4409 23.6854 65.8899 21.6889 65.8899 19.3046C65.8899 15.5988 66.9174 12.7835 68.9724 10.8588C71.0274 8.93411 73.9461 7.97175 77.7285 7.97175C81.4811 7.97175 84.3104 8.90538 86.2165 10.7726C88.1524 12.6399 89.1203 15.3402 89.1203 18.8737C89.1203 19.8791 88.6438 20.3818 87.6907 20.3818H71.2955C71.2955 22.2778 71.9805 23.7429 73.3505 24.7771C74.7205 25.7825 76.6265 26.2852 79.0687 26.2852C81.4215 26.2852 83.5361 25.7682 85.4124 24.734C85.6208 24.6191 85.7846 24.5616 85.9038 24.5616C86.1123 24.5616 86.2761 24.6909 86.3952 24.9494L87.4674 26.8023C87.5567 26.9747 87.6014 27.1327 87.6014 27.2763C87.6014 27.4774 87.4674 27.6641 87.1993 27.8365C85.9782 28.5547 84.6529 29.0861 83.2234 29.4309C81.8236 29.7756 80.2004 29.9479 78.3539 29.9479ZM83.9381 17.1931C83.9381 15.4121 83.4169 14.0188 82.3745 13.0134C81.3619 12.0079 79.8281 11.5052 77.7732 11.5052C75.6884 11.5052 74.0801 12.0223 72.9484 13.0564C71.8465 14.0906 71.2955 15.4695 71.2955 17.1931H83.9381Z" fill="#404A63"/>
<path d="M104.502 29.9479C96.0434 29.9479 91.8143 26.2709 91.8143 18.9168C91.8143 16.7622 92.2462 14.8662 93.1099 13.2288C93.9736 11.5626 95.2095 10.2699 96.8178 9.35065C98.4558 8.43139 100.377 7.97175 102.581 7.97175C105.708 7.97175 107.971 8.64684 109.371 9.99701V1.59435C109.371 1.04854 109.505 0.646357 109.773 0.387815C110.041 0.129272 110.473 0 111.069 0H113.302C113.898 0 114.33 0.129272 114.598 0.387815C114.866 0.646357 115 1.04854 115 1.59435V27.1471C113.868 27.9514 112.349 28.6265 110.443 29.1723C108.537 29.6894 106.557 29.9479 104.502 29.9479ZM104.636 26.0267C106.631 26.0267 108.21 25.682 109.371 24.9925V16.2021C109.371 14.7944 108.865 13.7315 107.852 13.0134C106.84 12.2952 105.529 11.9361 103.921 11.9361C101.747 11.9361 100.124 12.5681 99.0515 13.8321C97.9793 15.0961 97.4432 16.834 97.4432 19.046C97.4432 21.5166 98.0389 23.2976 99.2302 24.3893C100.421 25.4809 102.223 26.0267 104.636 26.0267Z" fill="#404A63"/>
</svg>
